<svg xmlns="http://www.w3.org/2000/svg" xmlns:xlink="http://www.w3.org/1999/xlink" fill="none" version="1.1" width="25" height="18.750003814697266" viewBox="0 0 25 18.750003814697266"><g><path d="M24.5289,2.81778Q24.7552,2.58549,24.8776,2.2833Q25,1.98112,25,1.65441Q25,1.49147,24.9687,1.33165Q24.9374,1.17184,24.8759,1.02129Q24.8143,0.870754,24.7252,0.735269Q24.6361,0.599786,24.5224,0.484566Q24.4089,0.369346,24.2754,0.278819Q24.142,0.188292,23.9935,0.125934Q23.8452,0.0635779,23.6876,0.031789Q23.5302,0,23.3696,0Q23.0429,0,22.7415,0.12769Q22.44,0.255379,22.2103,0.491047L8.31939,14.7429L2.78968,9.06948Q2.55998,8.83381,2.25853,8.70611Q1.95709,8.57843,1.63043,8.57843Q1.46985,8.57843,1.31235,8.61022Q1.15485,8.64201,1.00649,8.70437Q0.858135,8.76673,0.724613,8.85726Q0.591093,8.94779,0.477543,9.063Q0.363993,9.17821,0.274778,9.3137Q0.185563,9.44918,0.124109,9.59974Q0.0626565,9.75026,0.0313283,9.91008Q0,10.0699,0,10.2328Q0,10.5596,0.122391,10.8617Q0.244783,11.1639,0.471191,11.3962L0.471191,11.3962L7.16015,18.2589Q7.16648,18.2655,7.17289,18.2719Q7.40348,18.5033,7.70378,18.6275Q8.00409,18.7518,8.32841,18.75Q8.65272,18.7481,8.95165,18.6205Q9.25059,18.4929,9.47863,18.2589L24.5289,2.81778L24.5289,2.81778Z" fill-rule="evenodd" fill="#FFFFFF" fill-opacity="1" style="mix-blend-mode:passthrough"/></g></svg>